<svg xmlns="http://www.w3.org/2000/svg" width="837" height="199" viewBox="0 0 837 199" role="img" aria-label="103 contributions in the last 52 weeks">
  <style>
  :root { color-scheme: light dark; }
  .bg    { fill: #ffffff; stroke: #d8dee4; }
  .title { fill: #1f2328; }
  .label { fill: #59636e; }
  .muted { fill: #6e7781; }
  .value { fill: #1f2328; }
  .track { fill: #eaeef2; }
  @media (prefers-color-scheme: dark) {
    .bg    { fill: #0d1117; stroke: #30363d; }
    .title { fill: #e6edf3; }
    .label { fill: #9198a1; }
    .muted { fill: #7d8590; }
    .value { fill: #e6edf3; }
    .track { fill: #21262d; }
  }
  text { font-family: ui-sans-serif, -apple-system, BlinkMacSystemFont, "Segoe UI", Roboto, "Helvetica Neue", Arial, sans-serif; }
</style>
  <rect class="bg" x="0.5" y="0.5" width="836" height="198" rx="10" stroke-width="1"/>
  <rect x="0" y="14" width="3" height="28" rx="1.5" fill="#d9a441"/>
  <text class="title" x="30" y="38" font-size="16" font-weight="600">103 contributions in the last 52 weeks</text>
  <rect class="track" x="30" y="64" width="12" height="12" rx="2.5"/><rect class="track" x="30" y="79" width="12" height="12" rx="2.5"/><rect class="track" x="30" y="94" width="12" height="12" rx="2.5"/><rect class="track" x="30" y="109" width="12" height="12" rx="2.5"/><rect class="track" x="30" y="124" width="12" height="12" rx="2.5"/><rect class="track" x="30" y="139" width="12" height="12" rx="2.5"/><rect class="track" x="30" y="154" width="12" height="12" rx="2.5"/>
    <rect class="track" x="45" y="64" width="12" height="12" rx="2.5"/><rect class="track" x="45" y="79" width="12" height="12" rx="2.5"/><rect class="track" x="45" y="94" width="12" height="12" rx="2.5"/><rect class="track" x="45" y="109" width="12" height="12" rx="2.5"/><rect class="track" x="45" y="124" width="12" height="12" rx="2.5"/><rect class="track" x="45" y="139" width="12" height="12" rx="2.5"/><rect class="track" x="45" y="154" width="12" height="12" rx="2.5"/>
    <rect class="track" x="60" y="64" width="12" height="12" rx="2.5"/><rect class="track" x="60" y="79" width="12" height="12" rx="2.5"/><rect class="track" x="60" y="94" width="12" height="12" rx="2.5"/><rect class="track" x="60" y="109" width="12" height="12" rx="2.5"/><rect class="track" x="60" y="124" width="12" height="12" rx="2.5"/><rect class="track" x="60" y="139" width="12" height="12" rx="2.5"/><rect class="track" x="60" y="154" width="12" height="12" rx="2.5"/>
    <rect class="track" x="75" y="64" width="12" height="12" rx="2.5"/><rect class="track" x="75" y="79" width="12" height="12" rx="2.5"/><rect class="track" x="75" y="94" width="12" height="12" rx="2.5"/><rect class="track" x="75" y="109" width="12" height="12" rx="2.5"/><rect class="track" x="75" y="124" width="12" height="12" rx="2.5"/><rect class="track" x="75" y="139" width="12" height="12" rx="2.5"/><rect class="track" x="75" y="154" width="12" height="12" rx="2.5"/>
    <rect class="track" x="90" y="64" width="12" height="12" rx="2.5"/><rect class="track" x="90" y="79" width="12" height="12" rx="2.5"/><rect class="track" x="90" y="94" width="12" height="12" rx="2.5"/><rect class="track" x="90" y="109" width="12" height="12" rx="2.5"/><rect class="track" x="90" y="124" width="12" height="12" rx="2.5"/><rect class="track" x="90" y="139" width="12" height="12" rx="2.5"/><rect class="track" x="90" y="154" width="12" height="12" rx="2.5"/>
    <rect class="track" x="105" y="64" width="12" height="12" rx="2.5"/><rect class="track" x="105" y="79" width="12" height="12" rx="2.5"/><rect class="track" x="105" y="94" width="12" height="12" rx="2.5"/><rect class="track" x="105" y="109" width="12" height="12" rx="2.5"/><rect class="track" x="105" y="124" width="12" height="12" rx="2.5"/><rect class="track" x="105" y="139" width="12" height="12" rx="2.5"/><rect class="track" x="105" y="154" width="12" height="12" rx="2.5"/>
    <rect class="track" x="120" y="64" width="12" height="12" rx="2.5"/><rect class="track" x="120" y="79" width="12" height="12" rx="2.5"/><rect class="track" x="120" y="94" width="12" height="12" rx="2.5"/><rect class="track" x="120" y="109" width="12" height="12" rx="2.5"/><rect class="track" x="120" y="124" width="12" height="12" rx="2.5"/><rect class="track" x="120" y="139" width="12" height="12" rx="2.5"/><rect class="track" x="120" y="154" width="12" height="12" rx="2.5"/>
    <rect class="track" x="135" y="64" width="12" height="12" rx="2.5"/><rect class="track" x="135" y="79" width="12" height="12" rx="2.5"/><rect class="track" x="135" y="94" width="12" height="12" rx="2.5"/><rect class="track" x="135" y="109" width="12" height="12" rx="2.5"/><rect class="track" x="135" y="124" width="12" height="12" rx="2.5"/><rect class="track" x="135" y="139" width="12" height="12" rx="2.5"/><rect class="track" x="135" y="154" width="12" height="12" rx="2.5"/>
    <rect class="track" x="150" y="64" width="12" height="12" rx="2.5"/><rect class="track" x="150" y="79" width="12" height="12" rx="2.5"/><rect class="track" x="150" y="94" width="12" height="12" rx="2.5"/><rect class="track" x="150" y="109" width="12" height="12" rx="2.5"/><rect class="track" x="150" y="124" width="12" height="12" rx="2.5"/><rect class="track" x="150" y="139" width="12" height="12" rx="2.5"/><rect class="track" x="150" y="154" width="12" height="12" rx="2.5"/>
    <rect class="track" x="165" y="64" width="12" height="12" rx="2.5"/><rect class="track" x="165" y="79" width="12" height="12" rx="2.5"/><rect class="track" x="165" y="94" width="12" height="12" rx="2.5"/><rect class="track" x="165" y="109" width="12" height="12" rx="2.5"/><rect class="track" x="165" y="124" width="12" height="12" rx="2.5"/><rect class="track" x="165" y="139" width="12" height="12" rx="2.5"/><rect class="track" x="165" y="154" width="12" height="12" rx="2.5"/>
    <rect class="track" x="180" y="64" width="12" height="12" rx="2.5"/><rect class="track" x="180" y="79" width="12" height="12" rx="2.5"/><rect class="track" x="180" y="94" width="12" height="12" rx="2.5"/><rect class="track" x="180" y="109" width="12" height="12" rx="2.5"/><rect class="track" x="180" y="124" width="12" height="12" rx="2.5"/><rect class="track" x="180" y="139" width="12" height="12" rx="2.5"/><rect class="track" x="180" y="154" width="12" height="12" rx="2.5"/>
    <rect class="track" x="195" y="64" width="12" height="12" rx="2.5"/><rect class="track" x="195" y="79" width="12" height="12" rx="2.5"/><rect class="track" x="195" y="94" width="12" height="12" rx="2.5"/><rect class="track" x="195" y="109" width="12" height="12" rx="2.5"/><rect class="track" x="195" y="124" width="12" height="12" rx="2.5"/><rect class="track" x="195" y="139" width="12" height="12" rx="2.5"/><rect class="track" x="195" y="154" width="12" height="12" rx="2.5"/>
    <rect class="track" x="210" y="64" width="12" height="12" rx="2.5"/><rect class="track" x="210" y="79" width="12" height="12" rx="2.5"/><rect class="track" x="210" y="94" width="12" height="12" rx="2.5"/><rect class="track" x="210" y="109" width="12" height="12" rx="2.5"/><rect class="track" x="210" y="124" width="12" height="12" rx="2.5"/><rect class="track" x="210" y="139" width="12" height="12" rx="2.5"/><rect class="track" x="210" y="154" width="12" height="12" rx="2.5"/>
    <rect class="track" x="225" y="64" width="12" height="12" rx="2.5"/><rect class="track" x="225" y="79" width="12" height="12" rx="2.5"/><rect class="track" x="225" y="94" width="12" height="12" rx="2.5"/><rect class="track" x="225" y="109" width="12" height="12" rx="2.5"/><rect class="track" x="225" y="124" width="12" height="12" rx="2.5"/><rect class="track" x="225" y="139" width="12" height="12" rx="2.5"/><rect class="track" x="225" y="154" width="12" height="12" rx="2.5"/>
    <rect class="track" x="240" y="64" width="12" height="12" rx="2.5"/><rect class="track" x="240" y="79" width="12" height="12" rx="2.5"/><rect class="track" x="240" y="94" width="12" height="12" rx="2.5"/><rect class="track" x="240" y="109" width="12" height="12" rx="2.5"/><rect class="track" x="240" y="124" width="12" height="12" rx="2.5"/><rect class="track" x="240" y="139" width="12" height="12" rx="2.5"/><rect class="track" x="240" y="154" width="12" height="12" rx="2.5"/>
    <rect class="track" x="255" y="64" width="12" height="12" rx="2.5"/><rect class="track" x="255" y="79" width="12" height="12" rx="2.5"/><rect class="track" x="255" y="94" width="12" height="12" rx="2.5"/><rect class="track" x="255" y="109" width="12" height="12" rx="2.5"/><rect class="track" x="255" y="124" width="12" height="12" rx="2.5"/><rect class="track" x="255" y="139" width="12" height="12" rx="2.5"/><rect class="track" x="255" y="154" width="12" height="12" rx="2.5"/>
    <rect class="track" x="270" y="64" width="12" height="12" rx="2.5"/><rect class="track" x="270" y="79" width="12" height="12" rx="2.5"/><rect class="track" x="270" y="94" width="12" height="12" rx="2.5"/><rect class="track" x="270" y="109" width="12" height="12" rx="2.5"/><rect class="track" x="270" y="124" width="12" height="12" rx="2.5"/><rect class="track" x="270" y="139" width="12" height="12" rx="2.5"/><rect class="track" x="270" y="154" width="12" height="12" rx="2.5"/>
    <rect class="track" x="285" y="64" width="12" height="12" rx="2.5"/><rect class="track" x="285" y="79" width="12" height="12" rx="2.5"/><rect class="track" x="285" y="94" width="12" height="12" rx="2.5"/><rect class="track" x="285" y="109" width="12" height="12" rx="2.5"/><rect class="track" x="285" y="124" width="12" height="12" rx="2.5"/><rect class="track" x="285" y="139" width="12" height="12" rx="2.5"/><rect class="track" x="285" y="154" width="12" height="12" rx="2.5"/>
    <rect class="track" x="300" y="64" width="12" height="12" rx="2.5"/><rect class="track" x="300" y="79" width="12" height="12" rx="2.5"/><rect class="track" x="300" y="94" width="12" height="12" rx="2.5"/><rect class="track" x="300" y="109" width="12" height="12" rx="2.5"/><rect class="track" x="300" y="124" width="12" height="12" rx="2.5"/><rect class="track" x="300" y="139" width="12" height="12" rx="2.5"/><rect class="track" x="300" y="154" width="12" height="12" rx="2.5"/>
    <rect class="track" x="315" y="64" width="12" height="12" rx="2.5"/><rect class="track" x="315" y="79" width="12" height="12" rx="2.5"/><rect class="track" x="315" y="94" width="12" height="12" rx="2.5"/><rect class="track" x="315" y="109" width="12" height="12" rx="2.5"/><rect class="track" x="315" y="124" width="12" height="12" rx="2.5"/><rect class="track" x="315" y="139" width="12" height="12" rx="2.5"/><rect class="track" x="315" y="154" width="12" height="12" rx="2.5"/>
    <rect class="track" x="330" y="64" width="12" height="12" rx="2.5"/><rect class="track" x="330" y="79" width="12" height="12" rx="2.5"/><rect class="track" x="330" y="94" width="12" height="12" rx="2.5"/><rect class="track" x="330" y="109" width="12" height="12" rx="2.5"/><rect class="track" x="330" y="124" width="12" height="12" rx="2.5"/><rect class="track" x="330" y="139" width="12" height="12" rx="2.5"/><rect class="track" x="330" y="154" width="12" height="12" rx="2.5"/>
    <rect class="track" x="345" y="64" width="12" height="12" rx="2.5"/><rect class="track" x="345" y="79" width="12" height="12" rx="2.5"/><rect class="track" x="345" y="94" width="12" height="12" rx="2.5"/><rect class="track" x="345" y="109" width="12" height="12" rx="2.5"/><rect class="track" x="345" y="124" width="12" height="12" rx="2.5"/><rect class="track" x="345" y="139" width="12" height="12" rx="2.5"/><rect class="track" x="345" y="154" width="12" height="12" rx="2.5"/>
    <rect class="track" x="360" y="64" width="12" height="12" rx="2.5"/><rect class="track" x="360" y="79" width="12" height="12" rx="2.5"/><rect class="track" x="360" y="94" width="12" height="12" rx="2.5"/><rect class="track" x="360" y="109" width="12" height="12" rx="2.5"/><rect class="track" x="360" y="124" width="12" height="12" rx="2.5"/><rect class="track" x="360" y="139" width="12" height="12" rx="2.5"/><rect class="track" x="360" y="154" width="12" height="12" rx="2.5"/>
    <rect class="track" x="375" y="64" width="12" height="12" rx="2.5"/><rect class="track" x="375" y="79" width="12" height="12" rx="2.5"/><rect class="track" x="375" y="94" width="12" height="12" rx="2.5"/><rect class="track" x="375" y="109" width="12" height="12" rx="2.5"/><rect class="track" x="375" y="124" width="12" height="12" rx="2.5"/><rect class="track" x="375" y="139" width="12" height="12" rx="2.5"/><rect class="track" x="375" y="154" width="12" height="12" rx="2.5"/>
    <rect class="track" x="390" y="64" width="12" height="12" rx="2.5"/><rect class="track" x="390" y="79" width="12" height="12" rx="2.5"/><rect class="track" x="390" y="94" width="12" height="12" rx="2.5"/><rect class="track" x="390" y="109" width="12" height="12" rx="2.5"/><rect class="track" x="390" y="124" width="12" height="12" rx="2.5"/><rect class="track" x="390" y="139" width="12" height="12" rx="2.5"/><rect class="track" x="390" y="154" width="12" height="12" rx="2.5"/>
    <rect class="track" x="405" y="64" width="12" height="12" rx="2.5"/><rect class="track" x="405" y="79" width="12" height="12" rx="2.5"/><rect class="track" x="405" y="94" width="12" height="12" rx="2.5"/><rect class="track" x="405" y="109" width="12" height="12" rx="2.5"/><rect class="track" x="405" y="124" width="12" height="12" rx="2.5"/><rect class="track" x="405" y="139" width="12" height="12" rx="2.5"/><rect class="track" x="405" y="154" width="12" height="12" rx="2.5"/>
    <rect class="track" x="420" y="64" width="12" height="12" rx="2.5"/><rect class="track" x="420" y="79" width="12" height="12" rx="2.5"/><rect class="track" x="420" y="94" width="12" height="12" rx="2.5"/><rect class="track" x="420" y="109" width="12" height="12" rx="2.5"/><rect class="track" x="420" y="124" width="12" height="12" rx="2.5"/><rect class="track" x="420" y="139" width="12" height="12" rx="2.5"/><rect class="track" x="420" y="154" width="12" height="12" rx="2.5"/>
    <rect class="track" x="435" y="64" width="12" height="12" rx="2.5"/><rect class="track" x="435" y="79" width="12" height="12" rx="2.5"/><rect class="track" x="435" y="94" width="12" height="12" rx="2.5"/><rect class="track" x="435" y="109" width="12" height="12" rx="2.5"/><rect class="track" x="435" y="124" width="12" height="12" rx="2.5"/><rect class="track" x="435" y="139" width="12" height="12" rx="2.5"/><rect class="track" x="435" y="154" width="12" height="12" rx="2.5"/>
    <rect class="track" x="450" y="64" width="12" height="12" rx="2.5"/><rect class="track" x="450" y="79" width="12" height="12" rx="2.5"/><rect class="track" x="450" y="94" width="12" height="12" rx="2.5"/><rect class="track" x="450" y="109" width="12" height="12" rx="2.5"/><rect class="track" x="450" y="124" width="12" height="12" rx="2.5"/><rect class="track" x="450" y="139" width="12" height="12" rx="2.5"/><rect class="track" x="450" y="154" width="12" height="12" rx="2.5"/>
    <rect class="track" x="465" y="64" width="12" height="12" rx="2.5"/><rect class="track" x="465" y="79" width="12" height="12" rx="2.5"/><rect class="track" x="465" y="94" width="12" height="12" rx="2.5"/><rect class="track" x="465" y="109" width="12" height="12" rx="2.5"/><rect class="track" x="465" y="124" width="12" height="12" rx="2.5"/><rect class="track" x="465" y="139" width="12" height="12" rx="2.5"/><rect class="track" x="465" y="154" width="12" height="12" rx="2.5"/>
    <rect class="track" x="480" y="64" width="12" height="12" rx="2.5"/><rect class="track" x="480" y="79" width="12" height="12" rx="2.5"/><rect class="track" x="480" y="94" width="12" height="12" rx="2.5"/><rect class="track" x="480" y="109" width="12" height="12" rx="2.5"/><rect class="track" x="480" y="124" width="12" height="12" rx="2.5"/><rect class="track" x="480" y="139" width="12" height="12" rx="2.5"/><rect class="track" x="480" y="154" width="12" height="12" rx="2.5"/>
    <rect class="track" x="495" y="64" width="12" height="12" rx="2.5"/><rect class="track" x="495" y="79" width="12" height="12" rx="2.5"/><rect class="track" x="495" y="94" width="12" height="12" rx="2.5"/><rect class="track" x="495" y="109" width="12" height="12" rx="2.5"/><rect class="track" x="495" y="124" width="12" height="12" rx="2.5"/><rect class="track" x="495" y="139" width="12" height="12" rx="2.5"/><rect class="track" x="495" y="154" width="12" height="12" rx="2.5"/>
    <rect class="track" x="510" y="64" width="12" height="12" rx="2.5"/><rect class="track" x="510" y="79" width="12" height="12" rx="2.5"/><rect class="track" x="510" y="94" width="12" height="12" rx="2.5"/><rect class="track" x="510" y="109" width="12" height="12" rx="2.5"/><rect class="track" x="510" y="124" width="12" height="12" rx="2.5"/><rect class="track" x="510" y="139" width="12" height="12" rx="2.5"/><rect class="track" x="510" y="154" width="12" height="12" rx="2.5"/>
    <rect class="track" x="525" y="64" width="12" height="12" rx="2.5"/><rect class="track" x="525" y="79" width="12" height="12" rx="2.5"/><rect class="track" x="525" y="94" width="12" height="12" rx="2.5"/><rect class="track" x="525" y="109" width="12" height="12" rx="2.5"/><rect class="track" x="525" y="124" width="12" height="12" rx="2.5"/><rect class="track" x="525" y="139" width="12" height="12" rx="2.5"/><rect class="track" x="525" y="154" width="12" height="12" rx="2.5"/>
    <rect class="track" x="540" y="64" width="12" height="12" rx="2.5"/><rect class="track" x="540" y="79" width="12" height="12" rx="2.5"/><rect class="track" x="540" y="94" width="12" height="12" rx="2.5"/><rect class="track" x="540" y="109" width="12" height="12" rx="2.5"/><rect class="track" x="540" y="124" width="12" height="12" rx="2.5"/><rect class="track" x="540" y="139" width="12" height="12" rx="2.5"/><rect class="track" x="540" y="154" width="12" height="12" rx="2.5"/>
    <rect class="track" x="555" y="64" width="12" height="12" rx="2.5"/><rect class="track" x="555" y="79" width="12" height="12" rx="2.5"/><rect class="track" x="555" y="94" width="12" height="12" rx="2.5"/><rect class="track" x="555" y="109" width="12" height="12" rx="2.5"/><rect class="track" x="555" y="124" width="12" height="12" rx="2.5"/><rect class="track" x="555" y="139" width="12" height="12" rx="2.5"/><rect class="track" x="555" y="154" width="12" height="12" rx="2.5"/>
    <rect class="track" x="570" y="64" width="12" height="12" rx="2.5"/><rect x="570" y="79" width="12" height="12" rx="2.5" fill="#d9a441" opacity="0.25"><title>2026-06-08: 7</title></rect><rect class="track" x="570" y="94" width="12" height="12" rx="2.5"/><rect class="track" x="570" y="109" width="12" height="12" rx="2.5"/><rect class="track" x="570" y="124" width="12" height="12" rx="2.5"/><rect class="track" x="570" y="139" width="12" height="12" rx="2.5"/><rect class="track" x="570" y="154" width="12" height="12" rx="2.5"/>
    <rect class="track" x="585" y="64" width="12" height="12" rx="2.5"/><rect x="585" y="79" width="12" height="12" rx="2.5" fill="#d9a441" opacity="0.25"><title>2026-06-15: 1</title></rect><rect class="track" x="585" y="94" width="12" height="12" rx="2.5"/><rect class="track" x="585" y="109" width="12" height="12" rx="2.5"/><rect class="track" x="585" y="124" width="12" height="12" rx="2.5"/><rect class="track" x="585" y="139" width="12" height="12" rx="2.5"/><rect class="track" x="585" y="154" width="12" height="12" rx="2.5"/>
    <rect class="track" x="600" y="64" width="12" height="12" rx="2.5"/><rect class="track" x="600" y="79" width="12" height="12" rx="2.5"/><rect class="track" x="600" y="94" width="12" height="12" rx="2.5"/><rect class="track" x="600" y="109" width="12" height="12" rx="2.5"/><rect class="track" x="600" y="124" width="12" height="12" rx="2.5"/><rect class="track" x="600" y="139" width="12" height="12" rx="2.5"/><rect class="track" x="600" y="154" width="12" height="12" rx="2.5"/>
    <rect class="track" x="615" y="64" width="12" height="12" rx="2.5"/><rect class="track" x="615" y="79" width="12" height="12" rx="2.5"/><rect class="track" x="615" y="94" width="12" height="12" rx="2.5"/><rect class="track" x="615" y="109" width="12" height="12" rx="2.5"/><rect x="615" y="124" width="12" height="12" rx="2.5" fill="#d9a441" opacity="0.25"><title>2026-07-02: 6</title></rect><rect class="track" x="615" y="139" width="12" height="12" rx="2.5"/><rect class="track" x="615" y="154" width="12" height="12" rx="2.5"/>
    <rect class="track" x="630" y="64" width="12" height="12" rx="2.5"/><rect class="track" x="630" y="79" width="12" height="12" rx="2.5"/><rect class="track" x="630" y="94" width="12" height="12" rx="2.5"/><rect class="track" x="630" y="109" width="12" height="12" rx="2.5"/><rect class="track" x="630" y="124" width="12" height="12" rx="2.5"/><rect class="track" x="630" y="139" width="12" height="12" rx="2.5"/><rect class="track" x="630" y="154" width="12" height="12" rx="2.5"/>
    <rect class="track" x="645" y="64" width="12" height="12" rx="2.5"/><rect class="track" x="645" y="79" width="12" height="12" rx="2.5"/><rect class="track" x="645" y="94" width="12" height="12" rx="2.5"/><rect class="track" x="645" y="109" width="12" height="12" rx="2.5"/><rect class="track" x="645" y="124" width="12" height="12" rx="2.5"/><rect class="track" x="645" y="139" width="12" height="12" rx="2.5"/><rect class="track" x="645" y="154" width="12" height="12" rx="2.5"/>
    <rect class="track" x="660" y="64" width="12" height="12" rx="2.5"/><rect class="track" x="660" y="79" width="12" height="12" rx="2.5"/><rect class="track" x="660" y="94" width="12" height="12" rx="2.5"/><rect class="track" x="660" y="109" width="12" height="12" rx="2.5"/><rect class="track" x="660" y="124" width="12" height="12" rx="2.5"/><rect class="track" x="660" y="139" width="12" height="12" rx="2.5"/><rect class="track" x="660" y="154" width="12" height="12" rx="2.5"/>
    <rect class="track" x="675" y="64" width="12" height="12" rx="2.5"/><rect class="track" x="675" y="79" width="12" height="12" rx="2.5"/><rect class="track" x="675" y="94" width="12" height="12" rx="2.5"/><rect class="track" x="675" y="109" width="12" height="12" rx="2.5"/><rect class="track" x="675" y="124" width="12" height="12" rx="2.5"/><rect class="track" x="675" y="139" width="12" height="12" rx="2.5"/><rect class="track" x="675" y="154" width="12" height="12" rx="2.5"/>
    <rect class="track" x="690" y="64" width="12" height="12" rx="2.5"/><rect class="track" x="690" y="79" width="12" height="12" rx="2.5"/><rect class="track" x="690" y="94" width="12" height="12" rx="2.5"/><rect class="track" x="690" y="109" width="12" height="12" rx="2.5"/><rect class="track" x="690" y="124" width="12" height="12" rx="2.5"/><rect class="track" x="690" y="139" width="12" height="12" rx="2.5"/><rect class="track" x="690" y="154" width="12" height="12" rx="2.5"/>
    <rect class="track" x="705" y="64" width="12" height="12" rx="2.5"/><rect class="track" x="705" y="79" width="12" height="12" rx="2.5"/><rect class="track" x="705" y="94" width="12" height="12" rx="2.5"/><rect class="track" x="705" y="109" width="12" height="12" rx="2.5"/><rect class="track" x="705" y="124" width="12" height="12" rx="2.5"/><rect class="track" x="705" y="139" width="12" height="12" rx="2.5"/><rect class="track" x="705" y="154" width="12" height="12" rx="2.5"/>
    <rect class="track" x="720" y="64" width="12" height="12" rx="2.5"/><rect class="track" x="720" y="79" width="12" height="12" rx="2.5"/><rect class="track" x="720" y="94" width="12" height="12" rx="2.5"/><rect class="track" x="720" y="109" width="12" height="12" rx="2.5"/><rect class="track" x="720" y="124" width="12" height="12" rx="2.5"/><rect class="track" x="720" y="139" width="12" height="12" rx="2.5"/><rect x="720" y="154" width="12" height="12" rx="2.5" fill="#d9a441" opacity="0.25"><title>2026-08-22: 1</title></rect>
    <rect x="735" y="64" width="12" height="12" rx="2.5" fill="#d9a441" opacity="1"><title>2026-08-23: 51</title></rect><rect x="735" y="79" width="12" height="12" rx="2.5" fill="#d9a441" opacity="0.45"><title>2026-08-24: 15</title></rect><rect x="735" y="94" width="12" height="12" rx="2.5" fill="#d9a441" opacity="0.25"><title>2026-08-25: 2</title></rect><rect x="735" y="109" width="12" height="12" rx="2.5" fill="#d9a441" opacity="0.25"><title>2026-08-26: 2</title></rect><rect class="track" x="735" y="124" width="12" height="12" rx="2.5"/><rect class="track" x="735" y="139" width="12" height="12" rx="2.5"/><rect x="735" y="154" width="12" height="12" rx="2.5" fill="#d9a441" opacity="0.25"><title>2026-08-29: 4</title></rect>
    <rect class="track" x="750" y="64" width="12" height="12" rx="2.5"/><rect class="track" x="750" y="79" width="12" height="12" rx="2.5"/><rect x="750" y="94" width="12" height="12" rx="2.5" fill="#d9a441" opacity="0.25"><title>2026-09-01: 6</title></rect><rect class="track" x="750" y="109" width="12" height="12" rx="2.5"/><rect class="track" x="750" y="124" width="12" height="12" rx="2.5"/><rect class="track" x="750" y="139" width="12" height="12" rx="2.5"/><rect class="track" x="750" y="154" width="12" height="12" rx="2.5"/>
    <rect class="track" x="765" y="64" width="12" height="12" rx="2.5"/><rect class="track" x="765" y="79" width="12" height="12" rx="2.5"/><rect class="track" x="765" y="94" width="12" height="12" rx="2.5"/><rect class="track" x="765" y="109" width="12" height="12" rx="2.5"/><rect class="track" x="765" y="124" width="12" height="12" rx="2.5"/><rect class="track" x="765" y="139" width="12" height="12" rx="2.5"/><rect class="track" x="765" y="154" width="12" height="12" rx="2.5"/>
    <rect class="track" x="780" y="64" width="12" height="12" rx="2.5"/><rect class="track" x="780" y="79" width="12" height="12" rx="2.5"/><rect class="track" x="780" y="94" width="12" height="12" rx="2.5"/><rect class="track" x="780" y="109" width="12" height="12" rx="2.5"/><rect x="780" y="124" width="12" height="12" rx="2.5" fill="#d9a441" opacity="0.25"><title>2026-09-17: 6</title></rect><rect class="track" x="780" y="139" width="12" height="12" rx="2.5"/><rect class="track" x="780" y="154" width="12" height="12" rx="2.5"/>
    <rect class="track" x="795" y="64" width="12" height="12" rx="2.5"/><rect x="795" y="79" width="12" height="12" rx="2.5" fill="#d9a441" opacity="0.25"><title>2026-09-21: 2</title></rect>
    <text class="muted" x="679" y="186" font-size="11">Less</text>
    <rect class="track" x="707" y="177" width="11" height="11" rx="2.5"/><rect x="722" y="177" width="11" height="11" rx="2.5" fill="#d9a441" opacity="0.25"/><rect x="737" y="177" width="11" height="11" rx="2.5" fill="#d9a441" opacity="0.45"/><rect x="752" y="177" width="11" height="11" rx="2.5" fill="#d9a441" opacity="0.7"/><rect x="767" y="177" width="11" height="11" rx="2.5" fill="#d9a441" opacity="1"/>
    <text class="muted" x="787" y="186" font-size="11">More</text>
</svg>